<mxfile host="app.diagrams.net" agent="Mozilla/5.0 (Macintosh; Intel Mac OS X 10_15_7) AppleWebKit/605.1.15 (KHTML, like Gecko) Version/18.0.1 Safari/605.1.15" version="24.7.17">
  <diagram name="Page-1" id="a4aX_6hYJ9LEe9AwL2kh">
    <mxGraphModel dx="1242" dy="855" grid="1" gridSize="10" guides="1" tooltips="1" connect="1" arrows="1" fold="1" page="1" pageScale="1" pageWidth="850" pageHeight="1100" math="0" shadow="0">
      <root>
        <mxCell id="0" />
        <mxCell id="1" parent="0" />
        <mxCell id="AwsF_YCx0bkPDYx8Pm8--11" style="edgeStyle=orthogonalEdgeStyle;rounded=0;orthogonalLoop=1;jettySize=auto;html=1;exitX=0.5;exitY=1;exitDx=0;exitDy=0;exitPerimeter=0;entryX=0.5;entryY=0;entryDx=0;entryDy=0;" edge="1" parent="1" source="AwsF_YCx0bkPDYx8Pm8--2" target="AwsF_YCx0bkPDYx8Pm8--4">
          <mxGeometry relative="1" as="geometry" />
        </mxCell>
        <mxCell id="AwsF_YCx0bkPDYx8Pm8--2" value="Start" style="strokeWidth=2;html=1;shape=mxgraph.flowchart.start_1;whiteSpace=wrap;" vertex="1" parent="1">
          <mxGeometry x="100" y="40" width="100" height="60" as="geometry" />
        </mxCell>
        <mxCell id="AwsF_YCx0bkPDYx8Pm8--12" style="edgeStyle=orthogonalEdgeStyle;rounded=0;orthogonalLoop=1;jettySize=auto;html=1;exitX=0.5;exitY=1;exitDx=0;exitDy=0;" edge="1" parent="1" source="AwsF_YCx0bkPDYx8Pm8--4" target="AwsF_YCx0bkPDYx8Pm8--5">
          <mxGeometry relative="1" as="geometry" />
        </mxCell>
        <mxCell id="AwsF_YCx0bkPDYx8Pm8--4" value="Log in to manager/admin account" style="rounded=1;whiteSpace=wrap;html=1;absoluteArcSize=1;arcSize=14;strokeWidth=2;" vertex="1" parent="1">
          <mxGeometry x="75" y="130" width="150" height="50" as="geometry" />
        </mxCell>
        <mxCell id="AwsF_YCx0bkPDYx8Pm8--5" value="Go to inventory management section" style="rounded=1;whiteSpace=wrap;html=1;absoluteArcSize=1;arcSize=14;strokeWidth=2;" vertex="1" parent="1">
          <mxGeometry x="75" y="230" width="150" height="40" as="geometry" />
        </mxCell>
        <mxCell id="AwsF_YCx0bkPDYx8Pm8--14" style="edgeStyle=orthogonalEdgeStyle;rounded=0;orthogonalLoop=1;jettySize=auto;html=1;exitX=0.5;exitY=1;exitDx=0;exitDy=0;exitPerimeter=0;entryX=0.5;entryY=0;entryDx=0;entryDy=0;" edge="1" parent="1" source="AwsF_YCx0bkPDYx8Pm8--6" target="AwsF_YCx0bkPDYx8Pm8--8">
          <mxGeometry relative="1" as="geometry" />
        </mxCell>
        <mxCell id="AwsF_YCx0bkPDYx8Pm8--6" value="Does the user want to add a&lt;div&gt;new product&lt;/div&gt;" style="strokeWidth=2;html=1;shape=mxgraph.flowchart.decision;whiteSpace=wrap;" vertex="1" parent="1">
          <mxGeometry x="50" y="320" width="200" height="100" as="geometry" />
        </mxCell>
        <mxCell id="AwsF_YCx0bkPDYx8Pm8--15" style="edgeStyle=orthogonalEdgeStyle;rounded=0;orthogonalLoop=1;jettySize=auto;html=1;exitX=0.5;exitY=1;exitDx=0;exitDy=0;" edge="1" parent="1" source="AwsF_YCx0bkPDYx8Pm8--8" target="AwsF_YCx0bkPDYx8Pm8--9">
          <mxGeometry relative="1" as="geometry" />
        </mxCell>
        <mxCell id="AwsF_YCx0bkPDYx8Pm8--8" value="Click on create a new product" style="rounded=1;whiteSpace=wrap;html=1;absoluteArcSize=1;arcSize=14;strokeWidth=2;" vertex="1" parent="1">
          <mxGeometry x="75" y="470" width="150" height="40" as="geometry" />
        </mxCell>
        <mxCell id="AwsF_YCx0bkPDYx8Pm8--16" style="edgeStyle=orthogonalEdgeStyle;rounded=0;orthogonalLoop=1;jettySize=auto;html=1;exitX=0.5;exitY=1;exitDx=0;exitDy=0;entryX=0.5;entryY=0;entryDx=0;entryDy=0;" edge="1" parent="1" source="AwsF_YCx0bkPDYx8Pm8--9" target="AwsF_YCx0bkPDYx8Pm8--10">
          <mxGeometry relative="1" as="geometry" />
        </mxCell>
        <mxCell id="AwsF_YCx0bkPDYx8Pm8--9" value="Insert product details and available units" style="rounded=1;whiteSpace=wrap;html=1;absoluteArcSize=1;arcSize=14;strokeWidth=2;" vertex="1" parent="1">
          <mxGeometry x="75" y="560" width="150" height="40" as="geometry" />
        </mxCell>
        <mxCell id="AwsF_YCx0bkPDYx8Pm8--10" value="Click on save" style="rounded=1;whiteSpace=wrap;html=1;absoluteArcSize=1;arcSize=14;strokeWidth=2;" vertex="1" parent="1">
          <mxGeometry x="75" y="640" width="150" height="40" as="geometry" />
        </mxCell>
        <mxCell id="AwsF_YCx0bkPDYx8Pm8--13" style="edgeStyle=orthogonalEdgeStyle;rounded=0;orthogonalLoop=1;jettySize=auto;html=1;exitX=0.5;exitY=1;exitDx=0;exitDy=0;entryX=0.5;entryY=0;entryDx=0;entryDy=0;entryPerimeter=0;" edge="1" parent="1" source="AwsF_YCx0bkPDYx8Pm8--5" target="AwsF_YCx0bkPDYx8Pm8--6">
          <mxGeometry relative="1" as="geometry" />
        </mxCell>
        <mxCell id="AwsF_YCx0bkPDYx8Pm8--17" style="edgeStyle=orthogonalEdgeStyle;rounded=0;orthogonalLoop=1;jettySize=auto;html=1;exitX=0;exitY=0.5;exitDx=0;exitDy=0;entryX=0;entryY=0.5;entryDx=0;entryDy=0;" edge="1" parent="1" source="AwsF_YCx0bkPDYx8Pm8--10" target="AwsF_YCx0bkPDYx8Pm8--5">
          <mxGeometry relative="1" as="geometry">
            <Array as="points">
              <mxPoint x="30" y="660" />
              <mxPoint x="30" y="250" />
            </Array>
          </mxGeometry>
        </mxCell>
        <mxCell id="AwsF_YCx0bkPDYx8Pm8--18" value="Yes" style="text;html=1;align=center;verticalAlign=middle;resizable=0;points=[];autosize=1;strokeColor=none;fillColor=none;" vertex="1" parent="1">
          <mxGeometry x="155" y="418" width="40" height="30" as="geometry" />
        </mxCell>
        <mxCell id="AwsF_YCx0bkPDYx8Pm8--25" style="edgeStyle=orthogonalEdgeStyle;rounded=0;orthogonalLoop=1;jettySize=auto;html=1;exitX=0.5;exitY=1;exitDx=0;exitDy=0;exitPerimeter=0;entryX=0.5;entryY=0;entryDx=0;entryDy=0;" edge="1" parent="1" source="AwsF_YCx0bkPDYx8Pm8--19" target="AwsF_YCx0bkPDYx8Pm8--20">
          <mxGeometry relative="1" as="geometry" />
        </mxCell>
        <mxCell id="AwsF_YCx0bkPDYx8Pm8--37" style="edgeStyle=orthogonalEdgeStyle;rounded=0;orthogonalLoop=1;jettySize=auto;html=1;exitX=1;exitY=0.5;exitDx=0;exitDy=0;exitPerimeter=0;" edge="1" parent="1" source="AwsF_YCx0bkPDYx8Pm8--19" target="AwsF_YCx0bkPDYx8Pm8--32">
          <mxGeometry relative="1" as="geometry" />
        </mxCell>
        <mxCell id="AwsF_YCx0bkPDYx8Pm8--19" value="Does the user want to update&lt;div&gt;an existing product&lt;br&gt;&lt;/div&gt;" style="strokeWidth=2;html=1;shape=mxgraph.flowchart.decision;whiteSpace=wrap;" vertex="1" parent="1">
          <mxGeometry x="305" y="320" width="200" height="100" as="geometry" />
        </mxCell>
        <mxCell id="AwsF_YCx0bkPDYx8Pm8--26" style="edgeStyle=orthogonalEdgeStyle;rounded=0;orthogonalLoop=1;jettySize=auto;html=1;exitX=0.5;exitY=1;exitDx=0;exitDy=0;entryX=0.5;entryY=0;entryDx=0;entryDy=0;" edge="1" parent="1" source="AwsF_YCx0bkPDYx8Pm8--20" target="AwsF_YCx0bkPDYx8Pm8--21">
          <mxGeometry relative="1" as="geometry" />
        </mxCell>
        <mxCell id="AwsF_YCx0bkPDYx8Pm8--20" value="Search the product" style="rounded=1;whiteSpace=wrap;html=1;absoluteArcSize=1;arcSize=14;strokeWidth=2;" vertex="1" parent="1">
          <mxGeometry x="330" y="470" width="150" height="40" as="geometry" />
        </mxCell>
        <mxCell id="AwsF_YCx0bkPDYx8Pm8--27" style="edgeStyle=orthogonalEdgeStyle;rounded=0;orthogonalLoop=1;jettySize=auto;html=1;exitX=0.5;exitY=1;exitDx=0;exitDy=0;entryX=0.5;entryY=0;entryDx=0;entryDy=0;" edge="1" parent="1" source="AwsF_YCx0bkPDYx8Pm8--21" target="AwsF_YCx0bkPDYx8Pm8--22">
          <mxGeometry relative="1" as="geometry" />
        </mxCell>
        <mxCell id="AwsF_YCx0bkPDYx8Pm8--21" value="Select the desired product" style="rounded=1;whiteSpace=wrap;html=1;absoluteArcSize=1;arcSize=14;strokeWidth=2;" vertex="1" parent="1">
          <mxGeometry x="330" y="560" width="150" height="40" as="geometry" />
        </mxCell>
        <mxCell id="AwsF_YCx0bkPDYx8Pm8--28" style="edgeStyle=orthogonalEdgeStyle;rounded=0;orthogonalLoop=1;jettySize=auto;html=1;exitX=0.5;exitY=1;exitDx=0;exitDy=0;entryX=0.5;entryY=0;entryDx=0;entryDy=0;" edge="1" parent="1" source="AwsF_YCx0bkPDYx8Pm8--22" target="AwsF_YCx0bkPDYx8Pm8--23">
          <mxGeometry relative="1" as="geometry" />
        </mxCell>
        <mxCell id="AwsF_YCx0bkPDYx8Pm8--22" value="Edit product details" style="rounded=1;whiteSpace=wrap;html=1;absoluteArcSize=1;arcSize=14;strokeWidth=2;" vertex="1" parent="1">
          <mxGeometry x="330" y="640" width="150" height="40" as="geometry" />
        </mxCell>
        <mxCell id="AwsF_YCx0bkPDYx8Pm8--29" style="edgeStyle=orthogonalEdgeStyle;rounded=0;orthogonalLoop=1;jettySize=auto;html=1;exitX=0;exitY=0.5;exitDx=0;exitDy=0;entryX=0;entryY=0.5;entryDx=0;entryDy=0;" edge="1" parent="1" source="AwsF_YCx0bkPDYx8Pm8--23" target="AwsF_YCx0bkPDYx8Pm8--5">
          <mxGeometry relative="1" as="geometry">
            <Array as="points">
              <mxPoint x="30" y="740" />
              <mxPoint x="30" y="250" />
            </Array>
          </mxGeometry>
        </mxCell>
        <mxCell id="AwsF_YCx0bkPDYx8Pm8--23" value="Click on save" style="rounded=1;whiteSpace=wrap;html=1;absoluteArcSize=1;arcSize=14;strokeWidth=2;" vertex="1" parent="1">
          <mxGeometry x="330" y="720" width="150" height="40" as="geometry" />
        </mxCell>
        <mxCell id="AwsF_YCx0bkPDYx8Pm8--24" style="edgeStyle=orthogonalEdgeStyle;rounded=0;orthogonalLoop=1;jettySize=auto;html=1;exitX=1;exitY=0.5;exitDx=0;exitDy=0;exitPerimeter=0;entryX=0;entryY=0.5;entryDx=0;entryDy=0;entryPerimeter=0;" edge="1" parent="1" source="AwsF_YCx0bkPDYx8Pm8--6" target="AwsF_YCx0bkPDYx8Pm8--19">
          <mxGeometry relative="1" as="geometry" />
        </mxCell>
        <mxCell id="AwsF_YCx0bkPDYx8Pm8--30" value="Yes" style="text;html=1;align=center;verticalAlign=middle;resizable=0;points=[];autosize=1;strokeColor=none;fillColor=none;" vertex="1" parent="1">
          <mxGeometry x="405" y="418" width="40" height="30" as="geometry" />
        </mxCell>
        <mxCell id="AwsF_YCx0bkPDYx8Pm8--31" value="No" style="text;html=1;align=center;verticalAlign=middle;resizable=0;points=[];autosize=1;strokeColor=none;fillColor=none;" vertex="1" parent="1">
          <mxGeometry x="260" y="330" width="40" height="30" as="geometry" />
        </mxCell>
        <mxCell id="AwsF_YCx0bkPDYx8Pm8--38" style="edgeStyle=orthogonalEdgeStyle;rounded=0;orthogonalLoop=1;jettySize=auto;html=1;exitX=0.5;exitY=1;exitDx=0;exitDy=0;exitPerimeter=0;" edge="1" parent="1" source="AwsF_YCx0bkPDYx8Pm8--32" target="AwsF_YCx0bkPDYx8Pm8--33">
          <mxGeometry relative="1" as="geometry" />
        </mxCell>
        <mxCell id="AwsF_YCx0bkPDYx8Pm8--32" value="Does the user want to delete&lt;div&gt;an existing product&lt;br&gt;&lt;/div&gt;" style="strokeWidth=2;html=1;shape=mxgraph.flowchart.decision;whiteSpace=wrap;" vertex="1" parent="1">
          <mxGeometry x="570" y="320" width="200" height="100" as="geometry" />
        </mxCell>
        <mxCell id="AwsF_YCx0bkPDYx8Pm8--39" style="edgeStyle=orthogonalEdgeStyle;rounded=0;orthogonalLoop=1;jettySize=auto;html=1;exitX=0.5;exitY=1;exitDx=0;exitDy=0;" edge="1" parent="1" source="AwsF_YCx0bkPDYx8Pm8--33" target="AwsF_YCx0bkPDYx8Pm8--34">
          <mxGeometry relative="1" as="geometry" />
        </mxCell>
        <mxCell id="AwsF_YCx0bkPDYx8Pm8--33" value="Search the product" style="rounded=1;whiteSpace=wrap;html=1;absoluteArcSize=1;arcSize=14;strokeWidth=2;" vertex="1" parent="1">
          <mxGeometry x="595" y="470" width="150" height="40" as="geometry" />
        </mxCell>
        <mxCell id="AwsF_YCx0bkPDYx8Pm8--40" style="edgeStyle=orthogonalEdgeStyle;rounded=0;orthogonalLoop=1;jettySize=auto;html=1;exitX=0.5;exitY=1;exitDx=0;exitDy=0;entryX=0.5;entryY=0;entryDx=0;entryDy=0;" edge="1" parent="1" source="AwsF_YCx0bkPDYx8Pm8--34" target="AwsF_YCx0bkPDYx8Pm8--35">
          <mxGeometry relative="1" as="geometry" />
        </mxCell>
        <mxCell id="AwsF_YCx0bkPDYx8Pm8--34" value="Select the desired product" style="rounded=1;whiteSpace=wrap;html=1;absoluteArcSize=1;arcSize=14;strokeWidth=2;" vertex="1" parent="1">
          <mxGeometry x="595" y="560" width="150" height="40" as="geometry" />
        </mxCell>
        <mxCell id="AwsF_YCx0bkPDYx8Pm8--42" style="edgeStyle=orthogonalEdgeStyle;rounded=0;orthogonalLoop=1;jettySize=auto;html=1;exitX=0.5;exitY=1;exitDx=0;exitDy=0;entryX=0.5;entryY=0;entryDx=0;entryDy=0;" edge="1" parent="1" source="AwsF_YCx0bkPDYx8Pm8--35" target="AwsF_YCx0bkPDYx8Pm8--36">
          <mxGeometry relative="1" as="geometry" />
        </mxCell>
        <mxCell id="AwsF_YCx0bkPDYx8Pm8--35" value="Click on delete" style="rounded=1;whiteSpace=wrap;html=1;absoluteArcSize=1;arcSize=14;strokeWidth=2;" vertex="1" parent="1">
          <mxGeometry x="595" y="640" width="150" height="40" as="geometry" />
        </mxCell>
        <mxCell id="AwsF_YCx0bkPDYx8Pm8--43" style="edgeStyle=orthogonalEdgeStyle;rounded=0;orthogonalLoop=1;jettySize=auto;html=1;exitX=0.5;exitY=1;exitDx=0;exitDy=0;entryX=0;entryY=0.5;entryDx=0;entryDy=0;" edge="1" parent="1" source="AwsF_YCx0bkPDYx8Pm8--36" target="AwsF_YCx0bkPDYx8Pm8--5">
          <mxGeometry relative="1" as="geometry">
            <Array as="points">
              <mxPoint x="670" y="780" />
              <mxPoint x="30" y="780" />
              <mxPoint x="30" y="250" />
            </Array>
          </mxGeometry>
        </mxCell>
        <mxCell id="AwsF_YCx0bkPDYx8Pm8--36" value="Confirm deletion" style="rounded=1;whiteSpace=wrap;html=1;absoluteArcSize=1;arcSize=14;strokeWidth=2;" vertex="1" parent="1">
          <mxGeometry x="595" y="720" width="150" height="40" as="geometry" />
        </mxCell>
        <mxCell id="AwsF_YCx0bkPDYx8Pm8--44" value="Yes" style="text;html=1;align=center;verticalAlign=middle;resizable=0;points=[];autosize=1;strokeColor=none;fillColor=none;" vertex="1" parent="1">
          <mxGeometry x="680" y="420" width="40" height="30" as="geometry" />
        </mxCell>
        <mxCell id="AwsF_YCx0bkPDYx8Pm8--45" value="No" style="text;html=1;align=center;verticalAlign=middle;resizable=0;points=[];autosize=1;strokeColor=none;fillColor=none;" vertex="1" parent="1">
          <mxGeometry x="520" y="330" width="40" height="30" as="geometry" />
        </mxCell>
      </root>
    </mxGraphModel>
  </diagram>
</mxfile>
